<svg width="23" height="23" viewBox="0 0 23 23" fill="none" xmlns="http://www.w3.org/2000/svg">
<path d="M14.603 3.06101C15.8951 4.3547 16.7039 6.05285 16.8939 7.87141C17.0839 9.68996 16.6438 11.5186 15.647 13.0515C15.821 13.1965 15.966 13.356 16.169 13.501C16.459 13.733 16.8505 14.023 17.3435 14.3565C17.8365 14.7045 18.1555 14.922 18.3005 15.038C18.9095 15.4875 19.359 15.8645 19.6635 16.169C20.1275 16.633 20.5335 17.1115 20.8815 17.619C21.244 18.1265 21.5195 18.6195 21.737 19.127C21.94 19.6345 22.0415 20.113 21.998 20.577C21.969 21.041 21.795 21.4325 21.476 21.7515C21.157 22.0705 20.7655 22.2445 20.3015 22.2735C19.852 22.3025 19.359 22.2155 18.866 21.998C18.3585 21.795 17.851 21.505 17.358 21.1425C16.8505 20.7945 16.372 20.3885 15.908 19.9245C15.6035 19.62 15.2265 19.1705 14.7915 18.576C14.6465 18.3875 14.429 18.0685 14.11 17.619C13.791 17.155 13.53 16.7925 13.298 16.488C13.066 16.198 12.8775 15.9805 12.66 15.763C11.155 16.5511 9.43769 16.8382 7.75816 16.5826C6.07862 16.327 4.52449 15.5421 3.322 14.342C0.219001 11.2245 0.219001 6.16401 3.322 3.06101C4.0624 2.31972 4.94166 1.73164 5.90951 1.33041C6.87735 0.929177 7.91479 0.722656 8.9625 0.722656C10.0102 0.722656 11.0477 0.929177 12.0155 1.33041C12.9833 1.73164 13.8626 2.31972 14.603 3.06101ZM12.5585 12.283C13.5058 11.3288 14.0374 10.0388 14.0374 8.69426C14.0374 7.34971 13.5058 6.0597 12.5585 5.10551C12.0877 4.63333 11.5284 4.2587 10.9126 4.00308C10.2967 3.74746 9.63652 3.61588 8.96975 3.61588C8.30298 3.61588 7.64276 3.74746 7.02694 4.00308C6.41111 4.2587 5.85178 4.63333 5.381 5.10551C4.90882 5.57629 4.53419 6.13561 4.27857 6.75144C4.02295 7.36727 3.89137 8.02749 3.89137 8.69426C3.89137 9.36103 4.02295 10.0212 4.27857 10.6371C4.53419 11.2529 4.90882 11.8122 5.381 12.283C5.85178 12.7552 6.41111 13.1298 7.02694 13.3854C7.64276 13.6411 8.30298 13.7726 8.96975 13.7726C9.63652 13.7726 10.2967 13.6411 10.9126 13.3854C11.5284 13.1298 12.0877 12.7552 12.5585 12.283Z" fill="black"/>
</svg>
